<?xml version="1.0" standalone="no"?>
<!DOCTYPE svg PUBLIC "-//W3C//DTD SVG 20010904//EN"
 "http://www.w3.org/TR/2001/REC-SVG-20010904/DTD/svg10.dtd">
<svg version="1.0" xmlns="http://www.w3.org/2000/svg"
 width="416.000000pt" height="416.000000pt" viewBox="0 0 416.000000 416.000000"
 preserveAspectRatio="xMidYMid meet">
<metadata>
Created by potrace 1.11, written by Peter Selinger 2001-2013
</metadata>
<g transform="translate(0.000000,416.000000) scale(0.100000,-0.100000)"
fill="#000000" stroke="none">
<path d="M1935 3660 c-186 -16 -357 -64 -516 -146 -163 -84 -276 -190 -357
-334 -29 -51 -82 -180 -82 -199 0 -5 17 -8 38 -7 33 1 37 4 40 29 3 21 9 27
28 27 19 0 24 -5 24 -25 0 -20 5 -25 24 -25 19 0 22 4 18 25 l-4 25 276 0
c256 0 276 -1 276 -17 0 -15 2 -16 10 -3 5 8 10 18 10 23 0 4 -139 7 -310 7
l-310 0 0 40 0 40 321 0 322 0 -6 -36 -6 -35 36 31 c32 29 72 51 113 63 11 3
23 51 45 181 16 97 33 176 37 176 12 0 10 -25 -17 -176 -14 -76 -25 -148 -25
-159 1 -18 1 -18 11 -3 10 17 59 22 59 6 0 -4 20 -8 45 -8 l45 0 0 255 0 255
-27 -1 c-16 -1 -69 -5 -118 -9z m101 -158 c-10 -2 -22 0 -28 6 -6 6 0 7 19 4
21 -5 23 -7 9 -10z m-406 -66 c0 -2 -13 -6 -30 -8 -16 -3 -30 -1 -30 4 0 4 14
8 30 8 17 0 30 -2 30 -4z m40 -6 c0 -5 -4 -10 -10 -10 -5 0 -10 5 -10 10 0 6
5 10 10 10 6 0 10 -4 10 -10z m60 1 c0 -4 -11 -6 -25 -3 -14 2 -25 6 -25 8 0
2 11 4 25 4 14 0 25 -4 25 -9z m80 -61 c0 -19 -7 -20 -252 -20 -158 0 -248 4
-238 9 8 6 18 7 22 5 4 -3 5 2 2 10 -5 14 21 16 230 16 229 0 236 -1 236 -20z
m177 -62 c-3 -7 -5 -2 -5 12 0 14 2 19 5 13 2 -7 2 -19 0 -25z m-640 -15 c-3
-10 -5 -4 -5 12 0 17 2 24 5 18 2 -7 2 -21 0 -30z m46 30 c-7 -2 -19 -2 -25 0
-7 3 -2 5 12 5 14 0 19 -2 13 -5z m197 3 c0 -3 -4 -8 -10 -11 -5 -3 -10 -1
-10 4 0 6 5 11 10 11 6 0 10 -2 10 -4z m200 -6 c0 -5 -7 -7 -15 -4 -8 4 -15 8
-15 10 0 2 7 4 15 4 8 0 15 -4 15 -10z m30 -5 c0 -8 -2 -15 -4 -15 -2 0 -6 7
-10 15 -3 8 -1 15 4 15 6 0 10 -7 10 -15z m177 -57 c-3 -8 -6 -5 -6 6 -1 11 2
17 5 13 3 -3 4 -12 1 -19z m-153 -33 c5 -13 -29 -15 -269 -15 -238 0 -275 2
-275 15 0 13 37 15 269 15 230 0 270 -2 275 -15z m-454 -60 c0 -46 -15 -46
-16 0 0 19 3 35 8 35 4 0 8 -16 8 -35z m128 0 c-1 -19 -6 -35 -10 -35 -4 0 -8
16 -8 35 0 19 5 35 10 35 6 0 10 -16 8 -35z m125 3 c-8 -46 -13 -48 -13 -5 0
21 4 37 10 37 5 0 7 -14 3 -32z m124 -20 c-2 -13 -4 -5 -4 17 -1 22 1 32 4 23
2 -10 2 -28 0 -40z"/>
<path d="M2108 3466 c2 -168 5 -206 17 -206 7 0 16 10 18 23 l4 22 2 -23 c1
-21 5 -23 31 -17 33 7 198 7 342 -1 l97 -6 4 34 3 33 8 -32 9 -33 204 0 204 0
-12 23 c-6 12 -51 60 -98 107 -176 172 -394 254 -731 275 l-105 7 3 -206z m92
-11 l0 -35 183 -2 c100 -1 203 -3 230 -3 26 0 47 -3 47 -7 0 -5 -19 -8 -42 -8
-45 0 -78 -22 -78 -51 0 -16 -12 -18 -102 -21 -57 -2 -138 -2 -180 0 l-78 3 0
34 c0 28 -4 35 -20 35 -16 0 -20 -7 -20 -35 0 -19 -4 -35 -10 -35 -23 0 -5
147 19 153 43 12 51 8 51 -28z m417 -22 c-3 -10 -5 -2 -5 17 0 19 2 27 5 18 2
-10 2 -26 0 -35z m-357 17 c0 -5 -2 -10 -4 -10 -3 0 -8 5 -11 10 -3 6 -1 10 4
10 6 0 11 -4 11 -10z m37 4 c-3 -3 -12 -4 -19 -1 -8 3 -5 6 6 6 11 1 17 -2 13
-5z m68 -4 c-6 -10 -55 -9 -55 1 0 4 13 7 30 7 16 -1 27 -4 25 -8z m35 0 c0
-5 -2 -10 -4 -10 -3 0 -8 5 -11 10 -3 6 -1 10 4 10 6 0 11 -4 11 -10z m40 0
c0 -5 -4 -10 -9 -10 -6 0 -13 5 -16 10 -3 6 1 10 9 10 9 0 16 -4 16 -10z m75
-2 c4 -3 -10 -6 -29 -6 -20 0 -36 4 -36 8 0 9 56 7 65 -2z m45 8 c0 -2 -7 -7
-16 -10 -8 -3 -12 -2 -9 4 6 10 25 14 25 6z"/>
<path d="M2148 3413 c6 -2 18 -2 25 0 6 3 1 5 -13 5 -14 0 -19 -2 -12 -5z"/>
<path d="M2230 3378 c0 -5 41 -8 90 -8 50 0 90 3 90 8 0 4 -40 7 -90 7 -49 0
-90 -3 -90 -7z"/>
<path d="M2438 3373 c7 -3 16 -2 19 1 4 3 -2 6 -13 5 -11 0 -14 -3 -6 -6z"/>
<path d="M2112 3193 c3 -34 6 -36 55 -49 134 -34 239 -127 274 -242 9 -31 17
-42 32 -42 20 0 20 1 2 13 -16 13 -13 15 30 20 26 4 146 7 266 7 169 0 219 -3
219 -12 0 -7 3 -23 6 -35 l6 -23 -265 0 c-203 0 -267 3 -270 13 -3 6 -6 2 -6
-10 l-1 -23 376 0 376 0 -7 33 c-31 150 -76 286 -117 355 l-20 32 -479 -1
-480 -1 3 -35z m867 -100 c-2 -24 -2 -25 -6 -5 -3 14 -12 22 -24 22 -13 0 -19
-7 -20 -22 l-2 -23 -4 23 c-4 22 -5 22 -199 22 l-194 0 -1 -22 -2 -23 -4 23
c-5 26 -20 29 -26 5 -4 -14 -5 -13 -6 4 l-1 22 245 1 245 1 -1 -28z m11 -68
c0 -13 -35 -15 -251 -15 -164 0 -248 3 -244 10 3 6 2 10 -3 10 -6 0 -12 -7
-16 -15 -6 -17 -22 -16 264 -16 199 0 336 -13 230 -23 -8 0 -19 -16 -25 -33
l-9 -33 -188 0 -188 0 0 35 c0 19 -4 35 -10 35 -5 0 -10 -16 -10 -35 0 -34 -1
-35 -40 -35 l-40 0 0 43 c0 23 3 52 6 65 l6 22 259 0 c224 0 259 -2 259 -15z"/>
<path d="M2522 2950 c0 -19 2 -27 5 -17 2 9 2 25 0 35 -3 9 -5 1 -5 -18z"/>
<path d="M2571 2948 l-1 -28 183 1 c104 0 174 4 162 9 -11 4 -54 7 -96 6 -51
-1 -76 3 -76 11 0 6 6 9 14 6 7 -3 13 -1 13 4 0 5 -9 9 -20 10 -14 1 -20 -4
-20 -18 0 -17 -6 -19 -37 -17 -22 2 -41 9 -45 18 -5 12 -7 12 -7 -2 -1 -13 -9
-18 -30 -18 -23 0 -31 5 -34 23 -4 19 -4 18 -6 -5z"/>
<path d="M2868 2963 c7 -3 16 -2 19 1 4 3 -2 6 -13 5 -11 0 -14 -3 -6 -6z"/>
<path d="M2900 2961 c0 -10 19 -25 25 -20 1 2 -3 10 -11 17 -8 7 -14 8 -14 3z"/>
<path d="M1919 3106 c-166 -35 -254 -206 -173 -335 26 -41 135 -121 197 -144
15 -5 16 -4 7 13 -16 29 -12 156 6 198 31 74 94 121 179 132 56 8 97 -5 152
-47 l34 -26 -5 27 c-3 15 -10 34 -17 42 -9 11 -8 14 2 14 10 1 8 6 -6 18 -11
9 -26 29 -34 44 -16 30 -70 54 -157 68 -74 12 -114 11 -185 -4z"/>
<path d="M964 2914 c-5 -27 -8 -96 -7 -154 2 -123 28 -234 76 -330 l32 -65 88
-3 c80 -3 87 -1 87 17 0 16 18 31 36 31 13 0 1 -39 -13 -43 -11 -3 -6 -5 11
-6 22 -1 27 3 22 15 -3 9 -6 22 -6 30 0 8 -8 14 -17 15 -11 0 -13 3 -5 6 6 2
12 9 12 14 0 6 -4 7 -10 4 -6 -3 -7 1 -4 10 5 13 -32 192 -42 204 -2 2 -12 -7
-23 -20 -18 -22 -19 -22 -17 -4 2 11 -3 25 -9 30 -11 9 -50 144 -43 150 2 1
13 6 25 9 19 6 23 2 29 -28 5 -31 9 -34 24 -26 41 22 45 14 90 -167 23 -98 47
-192 52 -210 l9 -33 379 0 378 0 4 70 3 70 -50 16 c-106 35 -279 135 -333 193
-46 50 -66 101 -65 171 l1 65 -346 -3 c-260 -2 -347 0 -353 9 -4 7 -11 -9 -15
-37z m349 -64 c3 -11 2 -20 -3 -20 -4 0 -10 9 -13 20 -3 11 -2 20 3 20 4 0 10
-9 13 -20z m217 -40 c0 -5 -8 -10 -17 -10 -10 0 -28 -3 -40 -6 -13 -4 -23 -2
-23 4 0 10 23 18 63 21 9 0 17 -3 17 -9z m134 -72 c8 -29 24 -89 36 -133 12
-44 30 -113 42 -153 11 -41 17 -76 14 -79 -3 -4 -6 2 -6 11 0 11 -5 16 -14 13
-10 -4 -18 13 -31 61 -24 94 -36 128 -29 81 5 -32 3 -37 -17 -42 -13 -4 -24
-5 -24 -4 -1 1 -11 37 -22 79 l-21 77 28 6 28 6 -15 50 c-15 50 -12 79 6 79 5
0 16 -24 25 -52z m-104 -36 c0 -4 -18 -13 -40 -19 -45 -12 -55 0 -12 15 34 13
52 14 52 4z m-344 -105 c4 -4 2 -7 -5 -7 -8 0 -10 -7 -5 -22 6 -20 5 -21 -10
-6 -20 21 -21 47 -1 44 8 -1 18 -5 21 -9z m374 -6 c0 -5 -9 -12 -20 -15 -11
-3 -29 -9 -40 -12 -11 -3 -20 -1 -20 4 0 4 17 13 38 19 20 6 38 11 40 12 1 0
2 -3 2 -8z m30 -120 c0 -10 -69 -25 -77 -17 -3 3 0 8 8 10 8 2 21 7 29 9 24 9
40 8 40 -2z m-400 -71 c0 -5 -8 -10 -17 -10 -15 0 -16 2 -3 10 19 12 20 12 20
0z"/>
<path d="M1661 2594 c0 -11 3 -14 6 -6 3 7 2 16 -1 19 -3 4 -6 -2 -5 -13z"/>
<path d="M1727 2429 c4 -13 8 -18 11 -10 2 7 -1 18 -6 23 -8 8 -9 4 -5 -13z"/>
<path d="M1211 2684 c0 -11 3 -14 6 -6 3 7 2 16 -1 19 -3 4 -6 -2 -5 -13z"/>
<path d="M2561 2690 l-163 -5 92 -24 c80 -21 105 -23 197 -18 57 4 113 12 123
17 11 6 75 14 142 19 l123 8 -175 4 c-96 2 -249 2 -339 -1z"/>
<path d="M2150 2450 c0 -28 4 -40 14 -40 15 0 23 -47 51 -295 11 -101 12 -131
2 -137 -7 -5 1 -8 20 -8 30 0 32 2 28 28 -3 15 -12 95 -20 177 -8 83 -17 169
-21 193 -4 34 -2 42 10 42 9 0 16 -3 16 -7 0 -5 11 -101 23 -215 16 -141 20
-209 13 -212 -6 -2 108 -4 254 -3 252 1 254 2 58 4 l-207 3 2 53 2 52 303 3
302 2 0 -54 0 -55 -62 -4 c-35 -2 8 -4 95 -5 l159 -2 -33 41 c-99 125 -350
280 -589 364 -90 31 -390 115 -412 115 -5 0 -8 -18 -8 -40z m167 -46 c-3 -3
-12 -4 -19 -1 -8 3 -5 6 6 6 11 1 17 -2 13 -5z m10 -154 c2 -11 -2 -20 -7 -20
-5 0 -9 11 -8 25 3 27 10 25 15 -5z m9 -79 c3 -27 0 -41 -8 -41 -7 0 -5 -7 4
-17 12 -14 13 -24 6 -43 l-11 -25 -7 25 c-3 14 -2 28 3 31 6 4 6 9 0 12 -5 3
-8 25 -7 49 2 24 3 47 3 52 2 24 13 -7 17 -43z"/>
<path d="M2150 2182 l0 -212 26 0 c25 0 26 1 20 48 -4 26 -13 119 -21 206 -8
88 -17 162 -20 164 -3 3 -5 -90 -5 -206z"/>
<path d="M1109 2302 c64 -91 322 -291 357 -278 19 7 64 -14 64 -31 0 -26 183
-96 438 -167 l152 -43 -1 151 c-1 83 -3 143 -6 134 -2 -10 -8 -18 -11 -18 -24
1 -406 127 -409 135 -1 6 1 16 6 24 7 10 49 0 215 -52 l206 -64 0 118 0 119
-516 0 -515 0 20 -28z m506 -72 c4 -6 1 -9 -6 -8 -7 2 -35 -37 -62 -85 -27
-48 -51 -86 -54 -83 -7 7 96 186 107 186 5 0 12 -5 15 -10z m-7 -103 c-23 -40
-47 -81 -55 -92 -15 -20 -15 -19 -8 3 4 13 2 22 -4 22 -17 0 -13 17 17 65 36
58 49 48 15 -12 -13 -25 -23 -47 -20 -49 8 -8 78 126 72 136 -3 5 0 7 9 4 11
-4 6 -20 -26 -77z m173 -18 c19 -6 43 -14 54 -19 11 -4 39 -13 63 -19 23 -7
42 -16 42 -21 0 -6 -17 -4 -37 4 -21 7 -64 21 -95 30 -32 9 -60 21 -63 26 -8
12 -6 12 36 -1z m-94 -59 c-6 -16 -13 -28 -15 -26 -6 6 10 56 18 56 5 0 3 -13
-3 -30z m158 -92 c90 -28 162 -55 159 -59 -2 -5 -12 -6 -22 -3 -14 5 -14 4 -3
-4 9 -6 21 -7 31 -2 27 14 100 -9 100 -31 0 -23 -2 -23 -76 0 -32 11 -132 43
-221 71 -113 35 -163 55 -163 65 0 23 18 19 195 -37z"/>
<path d="M2072 1864 c10 -10 20 -15 24 -12 3 4 -5 12 -18 18 -22 12 -22 12 -6
-6z"/>
<path d="M2150 1857 l0 -84 43 -12 c23 -7 83 -32 132 -55 103 -49 170 -112
210 -199 l25 -52 0 43 0 42 303 0 302 1 -132 129 c-129 126 -138 140 -86 140
8 0 95 -79 194 -176 l179 -177 -6 64 c-3 35 -8 80 -11 99 -3 19 -7 48 -8 65
-3 28 -2 29 12 10 14 -18 15 -18 9 -2 -3 11 -9 30 -12 43 -3 13 -10 22 -14 19
-5 -3 -6 3 -4 12 2 10 -13 52 -34 93 l-37 75 -532 3 -533 2 0 -83z m550 43 c0
-19 -7 -20 -249 -20 -241 0 -272 4 -256 30 4 6 100 10 256 10 242 0 249 -1
249 -20z m-430 -70 c0 -22 -4 -40 -9 -40 -6 0 -9 18 -8 40 1 22 5 40 9 40 4 0
8 -18 8 -40z m120 0 c0 -22 -4 -40 -10 -40 -5 0 -10 18 -10 40 0 22 5 40 10
40 6 0 10 -18 10 -40z m120 0 c0 -22 -4 -40 -10 -40 -5 0 -10 18 -10 40 0 22
5 40 10 40 6 0 10 -18 10 -40z m120 0 c0 -22 -4 -40 -10 -40 -5 0 -10 18 -10
40 0 22 5 40 10 40 6 0 10 -18 10 -40z m45 0 c3 -5 1 -10 -4 -10 -6 0 -11 5
-11 10 0 6 2 10 4 10 3 0 8 -4 11 -10z m95 -75 c0 -14 -3 -25 -7 -25 -5 0 -8
11 -8 25 0 14 3 25 8 25 4 0 7 -11 7 -25z m-367 -22 c-7 -2 -21 -2 -30 0 -10
3 -4 5 12 5 17 0 24 -2 18 -5z m97 -43 c0 -28 -3 -30 -35 -30 -32 0 -35 2 -35
30 0 28 3 30 35 30 32 0 35 -2 35 -30z m430 0 c0 -16 -2 -30 -4 -30 -2 0 -6
14 -8 30 -3 17 -1 30 4 30 4 0 8 -13 8 -30z m-190 -7 c0 -9 -149 -7 -158 2 -3
3 31 5 76 5 45 0 82 -3 82 -7z m70 -2 c0 -5 -9 -7 -20 -4 -11 3 -20 7 -20 9 0
2 9 4 20 4 11 0 20 -4 20 -9z m47 3 c-3 -3 -12 -4 -19 -1 -8 3 -5 6 6 6 11 1
17 -2 13 -5z m-297 -84 c0 -22 -2 -40 -4 -40 -2 0 -6 18 -8 40 -2 22 0 40 4
40 5 0 8 -18 8 -40z m232 0 c-2 -22 -6 -40 -8 -40 -2 0 -4 18 -4 40 0 22 3 40
8 40 4 0 6 -18 4 -40z m118 0 c0 -22 -2 -40 -4 -40 -2 0 -6 18 -8 40 -2 22 0
40 4 40 5 0 8 -18 8 -40z m120 30 c0 -5 -2 -10 -4 -10 -3 0 -8 5 -11 10 -3 6
-1 10 4 10 6 0 11 -4 11 -10z m0 -45 c0 -14 -4 -25 -9 -25 -4 0 -6 11 -3 25 2
14 6 25 8 25 2 0 4 -11 4 -25z m-350 -17 c0 -5 -4 -8 -10 -8 -5 0 -10 10 -10
23 0 18 2 19 10 7 5 -8 10 -18 10 -22z"/>
<path d="M1689 1550 c-1 -8 -1 -18 0 -22 0 -3 3 -36 5 -72 9 -118 69 -212 162
-256 63 -29 69 -25 24 16 -22 20 -40 44 -40 54 0 10 -3 20 -7 22 -5 2 -38 64
-75 138 -37 74 -68 128 -69 120z"/>
<path d="M3170 1506 c0 -16 5 -25 13 -23 7 1 13 -11 15 -30 l3 -33 -270 0
-271 0 0 35 c0 31 -3 35 -25 35 -22 0 -25 -4 -25 -36 0 -31 -3 -35 -20 -29
-11 3 -20 2 -20 -3 0 -16 33 -17 400 -12 345 5 355 6 359 25 3 19 2 19 -16 3
-18 -16 -21 -15 -81 38 -59 53 -62 54 -62 30z"/>
<path d="M860 1449 c0 -81 51 -274 107 -407 l26 -63 56 8 c76 11 617 10 874
-1 154 -7 207 -6 207 3 0 6 -17 11 -43 11 -57 0 -145 24 -208 56 -50 25 -149
115 -182 164 l-16 25 0 -37 -1 -38 -240 0 c-207 0 -240 2 -240 15 0 10 11 15
35 15 35 0 35 0 35 46 l0 46 -35 -4 c-19 -2 -35 0 -35 4 0 4 101 8 224 8 l224
0 -18 63 c-10 34 -21 74 -24 90 l-6 27 -370 0 -370 0 0 -31z m262 -54 c-6 -35
-19 -31 -14 5 2 16 8 28 12 25 4 -2 5 -16 2 -30z m64 -118 c-10 -177 -18 -250
-26 -237 -6 9 -9 9 -14 -1 -6 -14 -1 148 10 303 6 77 8 85 22 72 12 -13 14
-36 8 -137z m-94 51 c2 -19 7 -24 20 -20 10 2 18 -1 18 -7 0 -6 -7 -11 -15
-11 -8 0 -15 -8 -14 -17 0 -11 3 -13 6 -5 8 19 25 14 19 -6 -3 -10 -7 -36 -8
-59 -1 -28 -5 -40 -14 -36 -6 2 -15 0 -18 -5 -3 -5 2 -9 12 -8 12 1 17 -6 17
-24 0 -15 -6 -25 -15 -25 -8 0 -18 -7 -21 -15 -4 -8 -6 5 -5 30 1 25 5 51 10
59 6 10 5 12 -2 7 -13 -8 -16 12 -6 38 3 9 12 12 22 8 16 -5 16 -4 1 10 -10
10 -16 36 -18 69 -1 52 7 66 11 17z m378 11 c0 -5 -43 -9 -95 -9 -52 0 -95 4
-95 8 0 4 43 8 95 8 52 1 95 -3 95 -7z m98 -6 c-10 -2 -26 -2 -35 0 -10 3 -2
5 17 5 19 0 27 -2 18 -5z m-308 -73 c0 -6 -11 -8 -24 -6 -21 4 -26 0 -29 -22
-4 -24 -4 -24 -6 6 -1 29 2 32 29 32 17 0 30 -5 30 -10z m-7 -27 c-7 -2 -19
-2 -25 0 -7 3 -2 5 12 5 14 0 19 -2 13 -5z m319 -80 c-73 -2 -190 -2 -260 0
-70 1 -10 3 133 3 143 0 200 -2 127 -3z m-144 -20 c-10 -2 -18 -11 -18 -19 0
-9 -12 -14 -37 -15 -21 0 -66 -2 -100 -4 -43 -2 -63 0 -63 8 0 7 -4 6 -10 -3
-8 -12 -10 -9 -10 11 l0 27 128 0 c70 0 119 -2 110 -5z m208 -4 c10 -17 2 -19
-89 -21 -87 -2 -104 2 -93 21 8 13 173 13 182 0z m41 -21 c-3 -7 -5 -2 -5 12
0 14 2 19 5 13 2 -7 2 -19 0 -25z m20 -5 c-3 -10 -5 -4 -5 12 0 17 2 24 5 18
2 -7 2 -21 0 -30z m20 0 c-3 -10 -5 -4 -5 12 0 17 2 24 5 18 2 -7 2 -21 0 -30z
m-7 -68 c-10 -19 -15 -21 -25 -11 -10 9 -30 11 -76 5 -58 -7 -187 -11 -231 -7
-10 1 -18 9 -18 18 0 13 8 16 38 14 86 -7 152 -4 152 6 0 4 35 8 77 9 42 1 80
4 82 7 12 12 12 -20 1 -41z m-603 29 c-3 -3 -12 -4 -19 -1 -8 3 -5 6 6 6 11 1
17 -2 13 -5z m113 -24 c0 -16 -4 -30 -10 -30 -5 0 -10 14 -10 30 0 17 5 30 10
30 6 0 10 -13 10 -30z m126 -7 c-4 -4 -11 -1 -16 7 -16 25 -11 35 7 17 9 -9
13 -20 9 -24z m-228 10 c-10 -2 -28 -2 -40 0 -13 2 -5 4 17 4 22 1 32 -1 23
-4z m172 -3 c0 -5 -7 -10 -15 -10 -8 0 -15 5 -15 10 0 6 7 10 15 10 8 0 15 -4
15 -10z m30 0 c0 -5 -4 -10 -10 -10 -5 0 -10 5 -10 10 0 6 5 10 10 10 6 0 10
-4 10 -10z"/>
<path d="M1080 1210 c0 -6 7 -10 15 -10 8 0 15 2 15 4 0 2 -7 6 -15 10 -8 3
-15 1 -15 -4z"/>
<path d="M2566 1323 c-11 -74 -60 -166 -116 -216 -63 -56 -126 -86 -215 -101
l-70 -12 -3 -272 -2 -272 22 4 c97 21 141 26 172 21 l35 -7 -3 44 c-2 23 -20
139 -41 257 -26 150 -34 216 -26 224 15 15 15 13 60 -251 41 -239 57 -286 81
-241 8 13 18 19 30 16 10 -3 47 3 82 13 34 10 55 19 46 19 -10 1 -18 8 -18 17
0 14 -2 14 -16 -1 -9 -9 -28 -15 -43 -13 -23 3 -26 8 -28 43 0 22 1 31 3 19 4
-16 12 -20 39 -20 19 1 35 3 35 6 0 3 -20 106 -45 230 -25 124 -45 233 -45
243 0 10 8 17 19 17 16 0 25 -32 72 -270 58 -293 53 -281 117 -264 l22 6 0
404 0 404 -79 0 -79 0 -6 -47z m-106 -561 c18 -101 30 -186 27 -189 -3 -3 -9
12 -13 33 -4 22 -11 47 -16 57 -5 10 -11 32 -13 50 -2 18 -8 55 -14 83 -14 70
-22 195 -11 169 5 -11 23 -102 40 -203z m-160 198 c0 -6 9 -88 19 -183 19
-163 24 -230 22 -269 -1 -14 -10 -18 -40 -18 l-38 0 -13 113 c-7 61 -18 167
-24 234 l-12 122 30 4 c17 2 37 5 44 5 6 1 12 -3 12 -8z m166 -63 c3 -26 12
-70 20 -99 l13 -53 -4 53 c-4 57 10 71 20 20 12 -60 17 -71 24 -59 4 6 7 -12
7 -41 -1 -29 1 -64 4 -77 3 -13 0 -26 -6 -28 -7 -2 -14 15 -19 43 -11 74 -26
99 -20 34 3 -30 3 -50 0 -45 -7 16 -55 267 -55 288 0 35 11 11 16 -36z m51 1
c-3 -8 -6 -5 -6 6 -1 11 2 17 5 13 3 -3 4 -12 1 -19z m10 -50 c-3 -8 -6 -5 -6
6 -1 11 2 17 5 13 3 -3 4 -12 1 -19z m10 -50 c-3 -8 -6 -5 -6 6 -1 11 2 17 5
13 3 -3 4 -12 1 -19z m30 -150 c-3 -8 -6 -5 -6 6 -1 11 2 17 5 13 3 -3 4 -12
1 -19z"/>
<path d="M2760 969 c0 -317 3 -399 13 -393 31 19 75 52 113 84 75 65 94 80
102 80 4 0 22 22 41 48 18 26 31 38 27 27 -5 -15 0 -13 22 10 16 17 28 33 26
37 -3 4 10 28 27 55 35 52 63 85 36 41 -10 -16 -13 -28 -8 -28 5 0 12 7 15 16
3 8 10 13 16 9 6 -4 7 2 1 17 -8 21 10 78 25 78 2 0 -2 -13 -11 -29 -12 -23
-12 -31 -2 -37 6 -4 9 -4 5 1 -4 4 0 21 8 37 9 16 13 36 10 44 -3 7 0 13 6 11
6 -1 13 4 16 12 2 8 0 11 -6 7 -6 -4 -8 2 -5 14 3 11 10 20 15 20 5 0 6 -5 2
-12 -5 -7 -3 -8 5 -3 8 4 11 18 8 34 -3 14 1 40 9 56 11 24 13 25 8 5 -4 -14
-9 -31 -11 -38 -3 -7 0 -10 9 -7 10 4 14 21 13 56 -1 46 0 49 13 33 13 -18 14
-17 10 8 -3 15 -2 29 2 30 4 2 10 20 13 41 l6 37 -290 0 -289 0 0 -401z m250
333 c0 -15 -6 -18 -30 -14 -28 4 -30 2 -30 -26 0 -27 4 -31 33 -35 31 -4 31
-4 -6 -5 l-39 -2 3 43 c3 38 6 43 34 48 16 4 31 7 33 8 1 0 2 -7 2 -17z m-80
-297 l0 -305 -25 0 -25 0 0 268 c0 147 -3 284 -6 305 -6 36 -6 37 25 37 l31 0
0 -305z m-92 208 c-10 -2 -26 -2 -35 0 -10 3 -2 5 17 5 19 0 27 -2 18 -5z
m-51 -50 c-3 -10 -5 -4 -5 12 0 17 2 24 5 18 2 -7 2 -21 0 -30z m67 -18 c-4
-9 -18 -14 -38 -14 -27 2 -28 2 -6 6 14 3 29 9 35 14 13 13 15 11 9 -6z m103
-222 c-1 -43 -3 -10 -3 72 0 83 2 118 3 78 2 -40 2 -107 0 -150z m213 197 c8
-5 11 -10 5 -10 -5 0 -17 5 -25 10 -8 5 -10 10 -5 10 6 0 17 -5 25 -10z m-193
-142 c-2 -13 -4 -3 -4 22 0 25 2 35 4 23 2 -13 2 -33 0 -45z m-117 -33 c0 -45
0 -45 -35 -45 -19 0 -35 4 -35 8 0 4 12 8 28 7 23 0 27 4 30 33 3 28 0 32 -20
32 -13 0 -30 -6 -37 -12 -10 -11 -11 -10 -6 5 5 11 18 17 41 17 34 0 34 -1 34
-45z m-2 -112 c-3 -47 -4 -48 -35 -49 -18 -1 -33 3 -33 8 0 5 8 7 18 4 27 -9
44 8 40 40 -2 23 -9 30 -33 35 -29 6 -28 7 8 8 l38 1 -3 -47z m152 -23 c0 -16
-7 -20 -35 -20 -28 0 -35 4 -35 20 0 16 7 20 35 20 28 0 35 -4 35 -20z m-210
-65 c-7 -9 -15 -13 -17 -11 -7 7 7 26 19 26 6 0 6 -6 -2 -15z m59 -22 c-2 -35
-2 -35 -6 -8 -3 16 -10 33 -16 37 -8 5 -6 8 6 8 13 0 17 -8 16 -37z m-11 -50
c-10 -2 -28 -2 -40 0 -13 2 -5 4 17 4 22 1 32 -1 23 -4z"/>
<path d="M1033 917 c11 -21 45 -68 74 -105 138 -175 333 -278 618 -327 92 -15
396 -37 405 -28 6 6 5 281 -1 287 -2 2 -25 6 -51 9 -43 6 -48 5 -48 -13 0 -25
2 -25 -187 -3 -144 16 -153 18 -153 38 0 17 -10 24 -50 35 l-50 14 0 43 0 44
33 -5 c17 -3 133 -17 257 -31 124 -14 230 -28 237 -30 7 -2 12 15 15 51 l3 54
-562 2 -561 3 21 -38z m893 -6 c-5 -8 -56 -3 -56 5 0 2 14 4 31 4 16 0 28 -4
25 -9z m187 -18 c14 -8 7 -32 -8 -27 -8 4 -12 10 -9 15 3 5 0 9 -5 9 -6 0 -11
-4 -11 -10 0 -5 -8 -10 -17 -10 -16 0 -16 2 -3 11 11 8 5 9 -23 4 -48 -8 -106
3 -86 16 13 8 144 2 162 -8z m-486 -115 c-3 -8 -6 -5 -6 6 -1 11 2 17 5 13 3
-3 4 -12 1 -19z m53 2 c0 -5 -4 -10 -10 -10 -5 0 -10 5 -10 10 0 6 5 10 10 10
6 0 10 -4 10 -10z m39 -59 c13 -15 13 -15 8 2 -7 18 2 20 43 7 l25 -8 -28 -1
c-16 -1 -26 -5 -22 -11 3 -5 -1 -10 -11 -10 -14 0 -15 -2 -3 -17 11 -13 11
-15 1 -9 -9 5 -15 1 -19 -14 -5 -21 -10 -22 -56 -17 -27 4 -52 8 -54 11 -12
11 10 85 25 88 31 6 77 -4 91 -21z m49 -50 c-15 -5 -21 7 -13 26 7 17 8 17 15
-2 4 -11 3 -22 -2 -24z m280 23 c26 -5 32 -11 33 -33 1 -25 2 -25 8 4 9 42 19
19 13 -32 -4 -42 -22 -61 -22 -25 -1 15 -2 15 -10 1 -6 -11 -19 -14 -45 -11
-36 4 -36 4 -34 50 3 44 2 46 -26 49 -16 3 -32 7 -35 10 -5 5 55 -1 118 -13z"/>
<path d="M1621 704 c0 -11 3 -14 6 -6 3 7 2 16 -1 19 -3 4 -6 -2 -5 -13z"/>
<path d="M1900 750 c0 -5 5 -10 10 -10 6 0 10 5 10 10 0 6 -4 10 -10 10 -5 0
-10 -4 -10 -10z"/>
<path d="M2900 590 c-129 -84 -354 -150 -590 -173 -20 -2 -9 -4 25 -5 80 -2
282 16 374 33 114 22 201 68 201 107 0 10 7 21 15 24 8 4 13 10 10 14 -3 5 3
13 12 19 10 6 14 10 8 10 -5 0 -30 -13 -55 -29z"/>
<path d="M1523 472 c20 -31 208 -63 357 -61 l85 2 -99 8 c-93 8 -295 42 -333
56 -10 4 -14 2 -10 -5z"/>
</g>
</svg>
